<?xml version="1.0" standalone="no"?>
<!DOCTYPE svg PUBLIC "-//W3C//DTD SVG 20010904//EN"
 "http://www.w3.org/TR/2001/REC-SVG-20010904/DTD/svg10.dtd">
<svg version="1.0" xmlns="http://www.w3.org/2000/svg"
 width="500.000000pt" height="500.000000pt" viewBox="0 0 500.000000 500.000000"
 preserveAspectRatio="xMidYMid meet">
<metadata>
Created by potrace 1.14, written by Peter Selinger 2001-2017
</metadata>
<g transform="translate(0.000000,500.000000) scale(0.100000,-0.100000)"
fill="#000000" stroke="none">
<path d="M4 4683 c5 -17 41 -164 51 -206 2 -10 7 -27 10 -37 3 -10 8 -27 10
-37 2 -10 8 -38 14 -63 7 -25 14 -55 17 -68 2 -12 50 -204 105 -425 55 -221
102 -409 104 -417 2 -8 26 -109 55 -225 28 -115 53 -217 55 -225 2 -8 27 -109
56 -225 29 -115 109 -439 179 -720 l126 -510 509 0 508 0 19 85 c11 47 21 96
24 110 3 14 41 187 86 385 68 306 109 490 134 605 3 14 21 97 40 185 20 88 51
241 69 340 19 99 37 194 40 210 3 17 11 67 18 113 11 78 26 108 28 60 2 -30 5
-55 13 -98 3 -19 14 -87 25 -150 19 -107 32 -182 46 -255 3 -16 8 -39 9 -50 2
-11 16 -76 31 -144 l26 -124 -26 -61 c-74 -169 -118 -336 -142 -536 -10 -85
-10 -445 0 -535 47 -417 185 -734 418 -965 137 -135 299 -237 484 -303 88 -31
276 -73 375 -84 143 -15 586 -8 710 11 14 3 51 7 84 11 111 13 216 32 385 69
41 9 179 48 239 67 l62 21 0 857 0 857 -551 -1 c-303 0 -556 3 -562 7 -7 4 -4
32 12 90 12 46 25 93 27 105 2 12 25 105 50 205 25 101 47 188 48 193 12 55
15 57 79 50 34 -4 71 -9 82 -11 11 -2 36 -7 55 -10 90 -16 205 -49 308 -90 63
-25 115 -44 116 -42 1 2 24 57 50 123 26 66 52 129 56 140 5 11 26 61 45 110
20 50 42 104 49 120 7 17 19 46 26 65 7 19 17 40 21 45 3 6 10 24 13 40 7 30
6 30 -76 58 -46 16 -92 33 -103 37 -25 11 -127 40 -175 50 -193 42 -284 58
-339 59 -20 1 -22 4 -16 29 4 15 9 36 11 47 2 11 6 29 8 40 7 32 246 998 252
1018 5 16 -19 17 -410 17 l-414 0 -6 -27 c-4 -16 -9 -38 -11 -50 -3 -13 -7
-33 -10 -45 -2 -13 -7 -35 -11 -50 -3 -15 -5 -30 -5 -33 0 -2 -5 -19 -10 -37
-5 -18 -12 -46 -15 -63 -3 -16 -11 -58 -19 -91 -8 -34 -16 -73 -19 -85 -5 -28
-91 -417 -111 -504 -7 -33 -19 -87 -26 -120 -12 -56 -27 -91 -36 -81 -13 12
-291 -87 -380 -136 -29 -16 -53 -25 -53 -21 0 4 -25 114 -55 244 -29 129 -56
246 -59 260 -6 29 -60 271 -123 544 -47 204 -62 274 -63 288 0 4 -180 7 -400
7 -220 0 -400 -3 -401 -7 -1 -13 -6 -34 -29 -128 -12 -49 -23 -97 -25 -105 -2
-8 -13 -55 -24 -105 -11 -49 -34 -146 -50 -215 -57 -244 -153 -655 -156 -670
-2 -8 -10 -42 -18 -75 -9 -33 -18 -71 -21 -85 -3 -14 -7 -34 -9 -45 -11 -46
-87 -422 -91 -450 -7 -43 -15 -86 -21 -115 -3 -14 -12 -65 -21 -115 -8 -49
-17 -101 -19 -115 -3 -14 -10 -62 -16 -108 -7 -45 -13 -81 -15 -80 -1 2 -5 21
-8 43 -22 141 -37 219 -77 420 -22 110 -42 207 -44 215 -2 8 -20 92 -39 185
-20 94 -41 188 -46 210 -12 50 -108 491 -114 525 -2 14 -14 68 -26 120 -26
115 -29 127 -36 165 -3 17 -11 58 -19 93 -8 34 -17 74 -20 90 -2 15 -9 42 -14
60 -5 18 -10 35 -10 37 0 3 -5 29 -10 58 -6 28 -13 63 -16 77 -3 14 -10 46
-17 73 l-12 47 -414 0 c-389 0 -413 -1 -408 -17z m4187 -3143 c4 -20 3 -484
-1 -490 -3 -4 -45 -15 -95 -24 -119 -20 -384 -16 -470 8 -135 38 -243 111
-328 221 -45 59 -108 182 -121 238 l-6 27 269 0 c206 0 270 3 274 13 3 9 61
12 241 12 130 0 236 -2 237 -5z"/>
</g>
</svg>
